<svg x="0px" y="0px" width="220px" height="220px" viewBox="0 0 55 55" >
  <line fill="none" stroke="#000000" strokeMiterlimit="10" x1="2.164" y1="14.551" x2="12.478" y2="44.034"/>
  <line fill="none" stroke="#000000" strokeMiterlimit="10" x1="2.164" y1="14.551" x2="25.37" y2="9.17"/>
  <line fill="none" stroke="#000000" strokeMiterlimit="10" x1="21.334" y1="2.668" x2="24.137" y2="9.17"/>
  <line fill="none" stroke="#000000" strokeMiterlimit="10" x1="21.334" y1="1.659" x2="28.061" y2="9.17"/>
  <line fill="none" stroke="#000000" strokeMiterlimit="10" x1="27.051" y1="3.453" x2="28.061" y2="9.73"/>
  <line fill="none" stroke="#000000" strokeMiterlimit="10" x1="28.061" y1="4.013" x2="33.105" y2="9.17"/>
  <line fill="none" stroke="#000000" strokeMiterlimit="10" x1="33.105" y1="9.17" x2="53.621" y2="15.112"/>
  <line fill="none" stroke="#000000" strokeMiterlimit="10" x1="53.061" y1="15.112" x2="41.85" y2="48.854"/>
  <line fill="none" stroke="#000000" strokeMiterlimit="10" x1="12.478" y1="44.034" x2="41.85" y2="48.854"/>
  <line fill="none" stroke="#000000" strokeMiterlimit="10" x1="16.625" y1="19.596" x2="12.478" y2="24.417"/>
  <line fill="none" stroke="#000000" strokeMiterlimit="10" x1="16.625" y1="20.269" x2="22.006" y2="22.847"/>
  <line fill="none" stroke="#000000" strokeMiterlimit="10" x1="21.334" y1="23.296" x2="22.006" y2="26.323"/>
  <line fill="none" stroke="#000000" strokeMiterlimit="10" x1="12.478" y1="24.417" x2="14.552" y2="28.116"/>
  <line fill="none" stroke="#000000" strokeMiterlimit="10" x1="15.168" y1="28.116" x2="19.316" y2="28.116"/>
  <line fill="none" stroke="#000000" strokeMiterlimit="10" x1="22.006" y1="26.323" x2="18.531" y2="28.677"/>
  <line fill="none" stroke="#000000" strokeMiterlimit="10" x1="33.89" y1="22.847" x2="39.047" y2="20.269"/>
  <line fill="none" stroke="#000000" strokeMiterlimit="10" x1="39.047" y1="20.269" x2="43.363" y2="23.296"/>
  <line fill="none" stroke="#000000" strokeMiterlimit="10" x1="43.363" y1="23.296" x2="41.85" y2="28.116"/>
  <line fill="none" stroke="#000000" strokeMiterlimit="10" x1="33.89" y1="22.847" x2="34.562" y2="26.995"/>
  <line fill="none" stroke="#000000" strokeMiterlimit="10" x1="34.562" y1="26.995" x2="37.59" y2="29.293"/>
  <line fill="none" stroke="#000000" strokeMiterlimit="10" x1="36.777" y1="28.677" x2="42.606" y2="28.116"/>
  <line fill="none" stroke="#000000" strokeMiterlimit="10" x1="24.137" y1="35.627" x2="32.531" y2="35.963"/>
</svg>
